<?xml version="1.0" encoding="UTF-8"?>
<!-- Created with Inkscape (http://www.inkscape.org/) -->
<svg width="139.64" height="175.45" version="1.1" viewBox="0 0 139.64 175.45" xmlns="http://www.w3.org/2000/svg" xmlns:cc="http://creativecommons.org/ns#" xmlns:dc="http://purl.org/dc/elements/1.1/" xmlns:rdf="http://www.w3.org/1999/02/22-rdf-syntax-ns#">
 <metadata>
  <rdf:RDF>
   <cc:Work rdf:about="">
    <dc:format>image/svg+xml</dc:format>
    <dc:type rdf:resource="http://purl.org/dc/dcmitype/StillImage"/>
    <dc:title/>
   </cc:Work>
  </rdf:RDF>
 </metadata>
 <g transform="translate(-29.229 -11.231)">
  <g transform="translate(-308.9 93.432)">
   <path d="m340.41-11.407 1.483 102.75 8.8983-3.6017 9.5339-6.3559 7.2034-9.322 5.0848-9.1102 2.5424-9.322 0.42373-65.042z" fill="#20a66f" stroke="#000" stroke-width="1px"/>
   <path d="m353.85 88.145c-4.69 2.74-14.22 5.86-15.13 4.94-0.33-0.32-0.59-24.36-0.59-53.42v-52.83h39v32.79c0 36.16-0.48 40.06-6.11 49.9-3.98 6.96-11.89 15.53-17.17 18.62zm-11.72-48.81c0 32.69 0.34 49.5 1.01 49.5 2.32 0 10.23-4.46 14.38-8.11 2.44-2.15 6.24-6.75 8.43-10.21 7.09-11.24 7.18-11.85 7.18-48.21v-32.47h-31z" fill="#060403"/>
  </g>
  <g transform="translate(-125.21 93.22)">
   <path d="m257.36-11.195 1.483 102.75 8.8983-3.6017 9.5339-6.3559 7.2034-9.322 5.0848-9.1102 2.5424-9.322 0.42373-65.042z" fill="#f80101" stroke="#000" stroke-width="1px"/>
   <path d="m270.8 88.357c-4.69 2.74-14.22 5.86-15.13 4.94-0.33-0.32-0.59-24.36-0.59-53.42v-52.83h39v32.79c0 36.16-0.48 40.06-6.11 49.9-3.98 6.96-11.89 15.53-17.17 18.62zm-11.72-48.81c0 32.69 0.34 49.5 1.01 49.5 2.32 0 10.23-4.46 14.38-8.11 2.44-2.15 6.24-6.75 8.43-10.21 7.09-11.24 7.18-11.85 7.18-48.21v-32.47h-31z" fill="#060403"/>
  </g>
  <g transform="translate(-146.03 1.9407)">
   <path d="m226.91 80.085 1.483 102.75 8.8983-3.6017 9.5339-6.3559 7.2034-9.322 5.0848-9.1102 2.5424-9.322 0.42373-65.042z" fill="#fffffe" stroke="#000" stroke-width="1px"/>
   <path d="m240.35 179.64c-4.69 2.74-14.22 5.86-15.13 4.94-0.33-0.32-0.59-24.36-0.59-53.42v-52.83h39v32.79c0 36.16-0.48 40.06-6.11 49.9-3.98 6.96-11.89 15.53-17.17 18.62zm-11.72-48.81c0 32.69 0.34 49.5 1.01 49.5 2.32 0 10.23-4.46 14.38-8.11 2.44-2.15 6.24-6.75 8.43-10.21 7.09-11.24 7.18-11.85 7.18-48.21v-32.47h-31z" fill="#060403"/>
  </g>
  <text x="36.864407" y="66.31356" fill="#000000" font-family="sans-serif" font-size="40px" letter-spacing="0px" word-spacing="0px" style="line-height:1.25" xml:space="preserve"><tspan x="36.864407" y="66.31356" font-family="'Times New Roman'" font-size="81.333px" letter-spacing="3.5px" style="line-height:50px">FSI</tspan></text>
 </g>
</svg>
